# xmcd
#
# Track frame offsets:
#	150
#	17864
#	34481
#	51092
#	64517
#	82536
#	101156
#	119062
#	134464
#	146725
#	164843
#	258264
#
# Disc length: 3794 seconds
#
# Revision: 1
# Processed by: cddbd v1.5.2PL0 Copyright (c) Steve Scherf et al.
# Submitted via: audiograbber 1.81.03
#
DISCID=ae0ed00c
DTITLE=Pat`Johnson - Boredom Built
DYEAR=2003
DGENRE=Blues
TTITLE0=Sweet Baby Swing
TTITLE1=Stinky Woman Blues
TTITLE2=Soul In Its Place
TTITLE3=My Own Man
TTITLE4=That's My Heart
TTITLE5=5X7
TTITLE6=Asbestos Sky
TTITLE7=26 Years
TTITLE8=What Sort Of Traitor
TTITLE9=Pocket Full Of Dirt
TTITLE10=Cottage Slide - Long
TTITLE11=Cottage Slide
EXTD=BluesfestRadio   com
EXTT0=
EXTT1=
EXTT2=
EXTT3=
EXTT4=
EXTT5=
EXTT6=
EXTT7=
EXTT8=
EXTT9=
EXTT10=
EXTT11=
PLAYORDER=
